<?xml version="1.0" encoding="utf-8"?>
<!-- Generator: Adobe Illustrator 26.0.2, SVG Export Plug-In . SVG Version: 6.00 Build 0)  -->
<svg version="1.1" id="Layer_1" xmlns="http://www.w3.org/2000/svg" xmlns:xlink="http://www.w3.org/1999/xlink" x="0px" y="0px"
	 viewBox="0 0 481.6 481.6" style="enable-background:new 0 0 481.6 481.6;" xml:space="preserve">
<style type="text/css">
	.st0{fill:#FFFFFF;}
</style>
<path class="st0" d="M240.8,0C108,0,0,108,0,240.8s108,240.8,240.8,240.8s240.8-108,240.8-240.8S373.6,0,240.8,0L240.8,0z
	 M240.8,459.2c-120.4,0-218.4-98-218.4-218.4c0-120.4,98-218.4,218.4-218.4c120.4,0,218.4,98,218.4,218.4
	C459.2,361.2,361.2,459.2,240.8,459.2L240.8,459.2z"/>
<path class="st0" d="M299.8,239.4c-6.2-0.1-11.4,4.6-11.6,10.8c-0.2,6.2,4.6,11.4,10.8,11.6c39.6,1.5,42.6,43.2,42.6,55.9V364H140
	v-46.3c0-12.7,3.1-54.4,42.6-55.9c6.2-0.2,11-5.4,10.8-11.6c-0.2-6.2-5.2-10.9-11.6-10.8c-39,1.5-64.2,32.2-64.2,78.3v57.5
	c0,6.2,5,11.2,11.2,11.2h224c6.2,0,11.2-5,11.2-11.2v-57.5C364,271.6,338.8,240.9,299.8,239.4L299.8,239.4z"/>
<path class="st0" d="M240.8,224c35.5,0,64.4-28.9,64.4-64.4c0-35.5-28.9-64.4-64.4-64.4s-64.4,28.9-64.4,64.4
	C176.4,195.1,205.3,224,240.8,224z M240.8,117.6c23.2,0,42,18.8,42,42s-18.8,42-42,42s-42-18.8-42-42
	C198.8,136.4,217.6,117.6,240.8,117.6z"/>
<path class="st0" d="M380.8,173.6c0-6.2-5-11.2-11.2-11.2c-6.2,0-11.2,5-11.2,11.2v16.8h-16.8c-6.2,0-11.2,5-11.2,11.2
	c0,6.2,5,11.2,11.2,11.2h16.8v16.8c0,6.2,5,11.2,11.2,11.2c6.2,0,11.2-5,11.2-11.2v-16.8h16.8c6.2,0,11.2-5,11.2-11.2
	c0-6.2-5-11.2-11.2-11.2h-16.8V173.6z"/>
</svg>
