<?xml version="1.0" encoding="utf-8"?>
<!-- Generator: Adobe Illustrator 26.0.2, SVG Export Plug-In . SVG Version: 6.00 Build 0)  -->
<svg version="1.1" id="Layer_1" xmlns="http://www.w3.org/2000/svg" xmlns:xlink="http://www.w3.org/1999/xlink" x="0px" y="0px"
	 viewBox="0 0 481.6 481.6" style="enable-background:new 0 0 481.6 481.6;" xml:space="preserve">
<style type="text/css">
	.st0{fill-rule:evenodd;clip-rule:evenodd;fill:#FFFFFF;}
</style>
<path class="st0" d="M397.2,460.6c-25.1,0-46.9-14.7-57.2-36c0,0,0,0,0-0.1c-0.4-0.9-0.8-1.7-1.2-2.6c-0.1-0.2-0.2-0.4-0.2-0.6
	c-0.3-0.7-0.6-1.4-0.8-2.1c-0.1-0.3-0.2-0.6-0.3-1c-0.2-0.6-0.4-1.2-0.6-1.8c-0.1-0.4-0.2-0.8-0.4-1.2c-0.2-0.5-0.3-1.1-0.5-1.6
	c-0.1-0.5-0.2-0.9-0.4-1.4c-0.1-0.5-0.2-1-0.4-1.5c-0.1-0.5-0.2-1-0.3-1.4c-0.1-0.5-0.2-1-0.3-1.5c-0.1-0.5-0.2-1-0.2-1.5
	c-0.1-0.5-0.1-1.1-0.2-1.6c-0.1-0.5-0.1-0.9-0.2-1.4c-0.1-0.6-0.1-1.3-0.1-1.9c0-0.4-0.1-0.8-0.1-1.2c0-1-0.1-2.1-0.1-3.1
	c0-35,28.5-63.5,63.5-63.5c1,0,2.1,0,3.1,0.1c0.4,0,0.8,0.1,1.2,0.1c0.6,0,1.3,0.1,1.9,0.1c0.5,0,0.9,0.1,1.4,0.2
	c0.5,0.1,1.1,0.1,1.6,0.2c0.5,0.1,1,0.2,1.5,0.2c0.5,0.1,1,0.2,1.5,0.3c0.5,0.1,1,0.2,1.5,0.3c0.5,0.1,1,0.2,1.5,0.3
	c0.5,0.1,0.9,0.2,1.4,0.4c0.5,0.1,1.1,0.3,1.6,0.5c0.4,0.1,0.8,0.2,1.2,0.4c0.6,0.2,1.2,0.4,1.8,0.6c0.3,0.1,0.7,0.2,1,0.4
	c0.7,0.3,1.4,0.5,2.1,0.8c0.2,0.1,0.4,0.2,0.7,0.3c0.9,0.4,1.7,0.7,2.5,1.1c0,0,0.1,0,0.1,0.1c21.3,10.3,36,32,36,57.2
	C460.6,432.2,432.2,460.6,397.2,460.6 M240.8,460.6c-52.6,0-102.4-18.4-142.1-52.1c17.5-31.1,48-59.8,78.1-73.7
	c0.6,0.4,1.2,0.7,1.8,1.1c0.3,0.2,0.6,0.4,1,0.6c1.1,0.6,2.2,1.2,3.3,1.8c0.2,0.1,0.4,0.2,0.6,0.3c0.9,0.5,1.9,1,2.9,1.4
	c0.3,0.2,0.7,0.3,1,0.5c0.8,0.4,1.7,0.8,2.5,1.2c0.3,0.2,0.7,0.3,1.1,0.5c0.9,0.4,1.7,0.7,2.6,1.1c0.3,0.1,0.6,0.3,0.9,0.4
	c1,0.4,2,0.8,3,1.2c0.2,0.1,0.3,0.1,0.5,0.2c1.2,0.5,2.5,0.9,3.7,1.3c1.8,0.6,3.7,0.6,5.5,0.1c2.9-0.8,5.3-3,6.3-6.1
	c1.6-4.9-1-10.2-5.9-11.8c-7-2.3-13.8-5.4-20.3-9.2c-1.6-0.9-3.2-1.9-4.7-2.9c0,0,0,0,0,0c-13.4-8.8-24.8-20.7-33.1-34.3
	c-10-16.6-15.3-35.7-15.3-55.3c0-59,48-107.1,107.1-107.1c59,0,107.1,48,107.1,107.1c0,36.7-18.5,69.9-48,89.3
	c-0.2,0.1-0.3,0.2-0.5,0.3c-3.9,2.6-8,4.9-12.2,6.9c0,0,0,0,0,0c-0.8,0.4-1.7,0.8-2.5,1.2c-0.5,0.2-0.9,0.4-1.4,0.6
	c-0.6,0.3-1.2,0.5-1.8,0.8c-0.8,0.3-1.6,0.6-2.4,1c-0.4,0.1-0.7,0.3-1.1,0.4c-1.3,0.5-2.5,0.9-3.8,1.3c-4.9,1.6-7.6,6.9-6,11.8
	c0.1,0.3,0.2,0.6,0.3,0.8c0,0.1,0.1,0.2,0.1,0.2c0.1,0.2,0.2,0.4,0.3,0.5c0,0.1,0.1,0.2,0.2,0.3c0.1,0.2,0.2,0.3,0.3,0.5
	c0.1,0.1,0.1,0.2,0.2,0.2c0.1,0.2,0.3,0.4,0.4,0.6c0,0,0.1,0.1,0.1,0.1c0.2,0.2,0.3,0.4,0.5,0.5c0.1,0.1,0.2,0.1,0.2,0.2
	c0.1,0.1,0.2,0.2,0.4,0.3c0.1,0.1,0.2,0.1,0.3,0.2c0.1,0.1,0.3,0.2,0.4,0.3c0.1,0.1,0.2,0.1,0.3,0.2c0.2,0.1,0.3,0.2,0.5,0.3
	c0.1,0.1,0.2,0.1,0.4,0.2c0.2,0.1,0.4,0.2,0.6,0.3c0.1,0,0.2,0.1,0.3,0.1c0.1,0,0.3,0.1,0.4,0.1c0.1,0,0.3,0.1,0.4,0.1
	c0.1,0,0.3,0.1,0.4,0.1c0.1,0,0.3,0.1,0.4,0.1c0.1,0,0.3,0,0.4,0.1c0.2,0,0.4,0,0.7,0.1c0.1,0,0.3,0,0.4,0c0,0,0,0,0,0
	c0.1,0,0.3,0,0.4,0c0.1,0,0.3,0,0.4,0c0.1,0,0.3,0,0.5-0.1c0.1,0,0.2,0,0.4-0.1c0.2,0,0.3-0.1,0.5-0.1c0.1,0,0.2-0.1,0.4-0.1
	c0.1,0,0.3-0.1,0.4-0.1c1.5-0.5,2.9-1,4.3-1.5c0.3-0.1,0.7-0.3,1-0.4c1.1-0.4,2.1-0.8,3.2-1.3c0.6-0.2,1.1-0.5,1.7-0.7
	c1-0.4,1.9-0.8,2.9-1.3c0.9-0.4,1.9-0.9,2.8-1.3c0.1-0.1,0.3-0.1,0.4-0.2c3.1-1.5,6.1-3.1,9-4.9c8.2,3.8,16.4,8.6,24.5,14.5
	c-9.7,13.5-15.4,30-15.4,47.8c0,0.9,0,1.8,0,2.7c0,0.2,0,0.4,0,0.7c0,0.8,0.1,1.6,0.1,2.4c0,0.1,0,0.2,0,0.3
	c0.1,0.9,0.2,1.9,0.3,2.8c0,0.1,0,0.3,0,0.4c0.1,0.9,0.2,1.7,0.3,2.6c0,0.1,0,0.1,0,0.2c0.1,0.9,0.3,1.9,0.5,2.8c0,0.1,0,0.1,0,0.2
	c0.2,0.9,0.3,1.7,0.5,2.6c0,0.1,0,0.2,0.1,0.3c0.2,0.9,0.4,1.8,0.7,2.7c0,0.1,0.1,0.2,0.1,0.3c0.2,0.8,0.4,1.5,0.6,2.3
	c0.1,0.2,0.1,0.4,0.2,0.7c0.2,0.8,0.5,1.6,0.8,2.4c0.1,0.3,0.2,0.6,0.3,0.8c0.2,0.5,0.4,1,0.5,1.5c0.2,0.4,0.3,0.8,0.5,1.2
	c0.1,0.3,0.2,0.6,0.4,0.9c0.4,0.9,0.8,1.9,1.2,2.8c0,0.1,0.1,0.2,0.1,0.3c1.8,3.9,3.9,7.8,6.3,11.4
	C300.9,454.5,271.4,460.6,240.8,460.6 M21,240.8c0-58.7,22.9-113.9,64.4-155.4C126.9,43.8,182.1,21,240.8,21s113.9,22.9,155.4,64.4
	c41.5,41.5,64.4,96.7,64.4,155.4c0,30.6-6.1,60.1-18.2,87.8c-3.6-2.4-7.4-4.5-11.3-6.3c-0.1-0.1-0.3-0.1-0.4-0.2
	c-0.8-0.4-1.7-0.7-2.5-1.1c-0.4-0.1-0.7-0.3-1.1-0.4c-0.4-0.1-0.8-0.3-1.1-0.4c-0.5-0.2-1.1-0.4-1.6-0.6c-0.2-0.1-0.5-0.2-0.7-0.3
	c-0.8-0.3-1.6-0.5-2.4-0.8c-0.2-0.1-0.4-0.1-0.6-0.2c-0.8-0.2-1.6-0.5-2.4-0.7c-0.1,0-0.1,0-0.2-0.1c-0.9-0.2-1.8-0.5-2.7-0.7
	c-0.1,0-0.2,0-0.3-0.1c-0.9-0.2-1.8-0.4-2.6-0.5c0,0-0.1,0-0.2,0c-0.9-0.2-1.9-0.3-2.8-0.5l-0.2,0c-0.9-0.1-1.7-0.2-2.6-0.3
	c-0.1,0-0.3,0-0.4,0c-0.9-0.1-1.9-0.2-2.8-0.3c-0.1,0-0.2,0-0.2,0c-0.8-0.1-1.6-0.1-2.5-0.1c-0.2,0-0.5,0-0.7,0c-0.9,0-1.8,0-2.7,0
	c-20.7,0-39.7,7.7-54.1,20.4c-6.6-4.9-13.3-9.1-20-12.8c27.4-23.4,44.1-58,44.1-95.7c0-69.3-56.4-125.7-125.7-125.7
	c-69.3,0-125.7,56.4-125.7,125.7c0,22.9,6.2,45.4,18,64.9c7,11.5,15.9,22,26.2,30.8c-29.1,16-57.3,43.3-75.1,73
	C43.6,354.2,21,299.2,21,240.8 M479.3,240.8c0-63.7-24.8-123.6-69.9-168.6c-45-45-104.9-69.9-168.6-69.9
	c-63.7,0-123.6,24.8-168.6,69.9c-45,45-69.9,104.9-69.9,168.6c0,63.7,24.8,123.6,69.9,168.6c45,45,104.9,69.9,168.6,69.9
	c35.1,0,68.8-7.4,100.4-22.1c14.7,13.7,34.4,22.1,56,22.1c45.3,0,82.1-36.8,82.1-82.1c0-21.6-8.4-41.3-22.1-56
	C471.9,309.6,479.3,275.9,479.3,240.8 M422.5,371.6c-3.6-3.6-9.6-3.6-13.2,0l-12,12l-12-12c-3.6-3.6-9.6-3.6-13.2,0
	c-3.6,3.6-3.6,9.6,0,13.2l12,12l-12,12c-3.6,3.6-3.6,9.6,0,13.2c1.8,1.8,4.2,2.7,6.6,2.7c2.4,0,4.8-0.9,6.6-2.7l12-12l12,12
	c1.8,1.8,4.2,2.7,6.6,2.7c2.4,0,4.8-0.9,6.6-2.7c3.6-3.6,3.6-9.6,0-13.2l-12-12l12-12C426.1,381.2,426.1,375.2,422.5,371.6"/>
</svg>
